<?xml version="1.0" encoding="UTF-8" standalone="no"?>
<!-- Created with Inkscape (http://www.inkscape.org/) -->

<svg
   xmlns:dc="http://purl.org/dc/elements/1.1/"
   xmlns:cc="http://creativecommons.org/ns#"
   xmlns:rdf="http://www.w3.org/1999/02/22-rdf-syntax-ns#"
   xmlns:svg="http://www.w3.org/2000/svg"
   xmlns="http://www.w3.org/2000/svg"
   xmlns:sodipodi="http://sodipodi.sourceforge.net/DTD/sodipodi-0.dtd"
   xmlns:inkscape="http://www.inkscape.org/namespaces/inkscape"
   width="400"
   height="400"
   id="svg2"
   sodipodi:version="0.32"
   inkscape:version="0.48.4 r9939"
   sodipodi:docname="esc-4.00-2016.svg"
   inkscape:export-filename="/home/sebastiano/Desktop/ESC/gfx/escv-1.03.png"
   inkscape:export-xdpi="98.839996"
   inkscape:export-ydpi="98.839996"
   version="1.1">
  <defs
     id="defs4">
    <linearGradient
       id="linearGradient13362">
      <stop
         style="stop-color:#be4bb8;stop-opacity:1.0000000;"
         offset="0.0000000"
         id="stop13364" />
      <stop
         style="stop-color:#47797b;stop-opacity:0.0000000;"
         offset="1.0000000"
         id="stop13366" />
    </linearGradient>
  </defs>
  <sodipodi:namedview
     id="base"
     pagecolor="#ffffff"
     bordercolor="#666666"
     borderopacity="1.0"
     inkscape:pageopacity="0.0"
     inkscape:pageshadow="2"
     inkscape:zoom="0.78569788"
     inkscape:cx="499.84559"
     inkscape:cy="321.92899"
     inkscape:document-units="px"
     inkscape:current-layer="g6501"
     inkscape:window-width="1280"
     inkscape:window-height="936"
     inkscape:window-x="0"
     inkscape:window-y="33"
     showguides="true"
     inkscape:guide-bbox="true"
     showgrid="false"
     inkscape:window-maximized="1" />
  <metadata
     id="metadata7">
    <rdf:RDF>
      <cc:Work
         rdf:about="">
        <dc:format>image/svg+xml</dc:format>
        <dc:type
           rdf:resource="http://purl.org/dc/dcmitype/StillImage" />
        <dc:title></dc:title>
      </cc:Work>
    </rdf:RDF>
  </metadata>
  <g
     inkscape:groupmode="layer"
     id="layer5"
     inkscape:label="back-up"
     style="display:inline"
     transform="translate(0,-652.36218)">
    <path
       sodipodi:type="star"
       style="fill:none;stroke:none"
       id="path6523"
       sodipodi:sides="10"
       sodipodi:cx="266.39197"
       sodipodi:cy="442.18057"
       sodipodi:r1="60.325043"
       sodipodi:r2="44.64053"
       sodipodi:arg1="-3.1117508"
       sodipodi:arg2="-2.7975915"
       inkscape:flatsided="false"
       inkscape:rounded="0.2"
       inkscape:randomized="0"
       d="m 206.09378,440.38063 c 0.13472,-4.51289 16.75034,-9.00498 18.27302,-13.25537 1.52268,-4.25038 -8.4607,-18.27143 -5.69911,-21.84326 2.7616,-3.57182 18.84431,2.56042 22.57449,0.0168 3.73019,-2.54363 3.89483,-19.75498 8.22847,-21.02142 4.33364,-1.26644 13.74039,13.14783 18.25328,13.28254 4.51289,0.13471 14.76267,-13.69279 19.01305,-12.17011 4.25038,1.52267 3.38811,18.71321 6.95993,21.4748 3.57182,2.7616 19.99167,-2.40042 22.53529,1.32976 2.54363,3.73019 -8.25831,17.13079 -6.99187,21.46443 1.26644,4.33364 17.58453,9.80883 17.44982,14.32172 -0.13471,4.51289 -16.75034,9.00498 -18.27302,13.25536 -1.52268,4.25039 8.46071,18.27144 5.69911,21.84326 -2.76159,3.57182 -18.8443,-2.56042 -22.57449,-0.0168 -3.73018,2.54362 -3.89483,19.75498 -8.22847,21.02142 -4.33364,1.26644 -13.74038,-13.14783 -18.25327,-13.28254 -4.51289,-0.13472 -14.76267,13.69279 -19.01305,12.17011 -4.25039,-1.52268 -3.38811,-18.71321 -6.95993,-21.47481 -3.57182,-2.76159 -19.99167,2.40043 -22.5353,-1.32976 -2.54362,-3.73019 8.25832,-17.13078 6.99188,-21.46443 -1.26644,-4.33364 -17.58454,-9.80882 -17.44983,-14.32171 z"
       transform="matrix(1.757572,0,0,1.757572,-156.1302,-417.9542)"
       inkscape:export-filename="/home/sebastiano/Desktop/ESC-07/web/gfx/ESC07.png"
       inkscape:export-xdpi="130.79816"
       inkscape:export-ydpi="130.79816" />
    <path
       sodipodi:type="star"
       style="fill:none;stroke:none"
       id="path6525"
       sodipodi:sides="10"
       sodipodi:cx="293.39117"
       sodipodi:cy="416.98132"
       sodipodi:r1="146.19505"
       sodipodi:r2="108.18433"
       sodipodi:arg1="3.0676536"
       sodipodi:arg2="3.3818129"
       inkscape:flatsided="false"
       inkscape:rounded="0.2"
       inkscape:randomized="0"
       d="m 147.59556,427.781 c -0.80828,-10.91176 38.11453,-25.91105 40.71773,-36.53852 2.6032,-10.62747 -24.981,-41.91765 -19.22113,-51.22054 5.75986,-9.3029 46.06543,1.44067 54.41813,-5.62701 8.35271,-7.06768 4.42853,-48.59555 14.55646,-52.73619 10.12793,-4.14064 36.4209,28.24211 47.33267,27.43384 10.91176,-0.80828 32.1465,-36.71161 42.77397,-34.10841 10.62748,2.6032 12.86484,44.25602 22.16773,50.01589 9.3029,5.75986 47.58561,-10.80508 54.65329,-2.45237 7.06769,8.35271 -15.60517,43.36563 -11.46453,53.49356 4.14064,10.12793 44.84863,19.22863 45.65691,30.1404 0.80827,10.91176 -38.11453,25.91104 -40.71773,36.53852 -2.6032,10.62747 24.98099,41.91765 19.22113,51.22054 -5.75986,9.3029 -46.06543,-1.44068 -54.41813,5.62701 -8.35271,7.06768 -4.42853,48.59555 -14.55646,52.73619 -10.12793,4.14063 -36.42091,-28.24212 -47.33267,-27.43384 -10.91176,0.80828 -32.1465,36.71161 -42.77397,34.1084 -10.62748,-2.6032 -12.86484,-44.25602 -22.16773,-50.01588 -9.3029,-5.75986 -47.58561,10.80507 -54.65329,2.45237 -7.06769,-8.35271 15.60517,-43.36564 11.46453,-53.49357 -4.14064,-10.12793 -44.84863,-19.22863 -45.65691,-30.14039 z" />
    <path
       sodipodi:type="star"
       style="fill:none;stroke:none"
       id="path6527"
       sodipodi:sides="10"
       sodipodi:cx="264.59204"
       sodipodi:cy="442.18057"
       sodipodi:r1="136.85803"
       sodipodi:r2="101.27494"
       sodipodi:arg1="3.0229472"
       sodipodi:arg2="3.3371065"
       inkscape:flatsided="false"
       inkscape:rounded="0.2"
       inkscape:randomized="0"
       d="m 128.69614,458.38009 c -1.21242,-10.17084 34.56057,-25.82656 36.55045,-35.87426 1.98989,-10.0477 -25.11588,-38.15616 -20.11848,-47.09718 4.9974,-8.94103 43.14056,-0.57993 50.6563,-7.53907 7.51574,-6.95914 2.10845,-45.63173 11.40683,-49.92777 9.29839,-4.29604 35.24232,24.88821 45.41316,23.6758 10.17084,-1.21242 28.52743,-35.67753 38.57513,-33.68765 10.0477,1.98989 13.88271,40.84991 22.82374,45.84731 8.94102,4.9974 44.0499,-12.09573 51.00903,-4.57999 6.95914,7.51574 -12.77962,41.20832 -8.48358,50.50671 4.29604,9.29838 42.74681,16.10623 43.95922,26.27707 1.21242,10.17084 -34.56057,25.82656 -36.55045,35.87426 -1.98989,10.0477 25.11588,38.15616 20.11848,47.09718 -4.9974,8.94102 -43.14056,0.57993 -50.6563,7.53906 -7.51574,6.95914 -2.10845,45.63173 -11.40683,49.92777 -9.29839,4.29604 -35.24232,-24.88821 -45.41316,-23.67579 -10.17084,1.21242 -28.52743,35.67753 -38.57513,33.68764 -10.0477,-1.98988 -13.88271,-40.8499 -22.82374,-45.8473 -8.94102,-4.9974 -44.04989,12.09572 -51.00903,4.57998 -6.95914,-7.51574 12.77962,-41.20832 8.48358,-50.5067 -4.29604,-9.29839 -42.74681,-16.10623 -43.95922,-26.27707 z" />
  </g>
  <g
     inkscape:label="button-out"
     inkscape:groupmode="layer"
     id="layer1"
     style="display:inline"
     transform="translate(0,-652.36218)" />
  <g
     inkscape:groupmode="layer"
     id="layer4"
     inkscape:label="button-in"
     style="display:inline"
     transform="translate(0,-652.36218)" />
  <g
     inkscape:groupmode="layer"
     id="layer2"
     inkscape:label="esc"
     style="display:inline"
     transform="translate(0,-652.36218)">
    <g
       style="display:inline"
       id="g6501"
       transform="matrix(1.4161158,0,0,1.4161158,172.51203,636.3397)">
      <g
         transform="matrix(1.4657286,0,0,1.4657286,-453.4881,-561.40303)"
         style="display:inline"
         id="layer1-0"
         inkscape:label="button-out">
        <path
           id="path1383-6"
           d="m 261.64599,508.10358 8.32475,-40.27379 39.8238,-44.32367 62.09813,20.92437 5.17484,35.77393 -31.49905,67.49796 -83.92247,-39.5988 z"
           style="fill:#beda26;fill-opacity:1;fill-rule:evenodd;stroke:#000000;stroke-width:8;stroke-linecap:round;stroke-linejoin:bevel;stroke-miterlimit:4;stroke-opacity:1;stroke-dasharray:none"
           inkscape:connector-curvature="0" />
        <path
           id="path1385-4"
           d="m 371.83642,444.43049 -26.77419,52.87341 0.44998,50.17349"
           style="fill:none;stroke:#000000;stroke-width:8;stroke-linecap:round;stroke-linejoin:round;stroke-miterlimit:4;stroke-opacity:1;stroke-dasharray:none"
           inkscape:connector-curvature="0" />
      </g>
      <g
         transform="matrix(1.4657286,0,0,1.4657286,-453.4881,-561.40303)"
         style="display:inline"
         inkscape:label="button-in"
         id="layer4-7">
        <path
           id="path12623-3"
           d="m 371.83642,444.43049 -26.77419,52.87341 0.44998,50.17349"
           style="fill:none;stroke:#000000;stroke-width:8;stroke-linecap:round;stroke-linejoin:round;stroke-miterlimit:4;stroke-opacity:1;stroke-dasharray:none;display:inline"
           inkscape:connector-curvature="0" />
        <path
           sodipodi:nodetypes="cc"
           id="path1393-4"
           d="m 270.15227,467.83822 74.91079,29.33108"
           style="fill:none;stroke:#000000;stroke-width:8;stroke-linecap:round;stroke-linejoin:round;stroke-miterlimit:4;stroke-opacity:1;stroke-dasharray:none;display:inline"
           inkscape:connector-curvature="0" />
      </g>
      <g
         transform="matrix(1.4657286,0,0,1.4657286,-453.4881,-561.40303)"
         style="display:inline"
         inkscape:label="esc"
         id="layer2-0">
        <text
           transform="matrix(1.019266,0.372139,-0.620289,0.754627,0,0)"
           sodipodi:linespacing="125%"
           id="text1415-0"
           y="362.56259"
           x="507.1387"
           style="font-size:13.81441116px;font-style:normal;font-variant:normal;font-weight:normal;font-stretch:normal;text-align:start;line-height:125%;writing-mode:lr-tb;text-anchor:start;fill:#000000;fill-opacity:1;stroke:#000000;stroke-width:0.67532748;stroke-linecap:butt;stroke-linejoin:round;stroke-miterlimit:4;stroke-opacity:1;stroke-dasharray:none;display:inline;font-family:Bitstream Vera Sans"
           xml:space="preserve"><tspan
             style="font-size:13.81441116px;font-style:normal;font-variant:normal;font-weight:normal;font-stretch:normal;text-align:start;line-height:125%;writing-mode:lr-tb;text-anchor:start;fill:#000000;fill-opacity:1;stroke:#000000;stroke-width:0.67532748;stroke-linejoin:round;stroke-miterlimit:4;stroke-opacity:1;stroke-dasharray:none;font-family:Bitstream Vera Sans"
             y="362.56259"
             x="507.1387"
             id="tspan1417-1"
             sodipodi:role="line">esc</tspan></text>
      </g>
    </g>
  </g>
  <g
     inkscape:groupmode="layer"
     id="layer3"
     inkscape:label="text"
     style="display:inline"
     transform="translate(0,-652.36218)" />
</svg>
